<?xml version="1.0" encoding="utf-8"?>
<!-- Generator: Adobe Illustrator 15.0.0, SVG Export Plug-In . SVG Version: 6.00 Build 0)  -->
<!DOCTYPE svg PUBLIC "-//W3C//DTD SVG 1.1//EN" "http://www.w3.org/Graphics/SVG/1.1/DTD/svg11.dtd">
<svg version="1.1" id="Layer_1_1_" xmlns="http://www.w3.org/2000/svg" xmlns:xlink="http://www.w3.org/1999/xlink" x="0px" y="0px"
	 width="266.539px" height="156.034px" viewBox="0 0 266.539 156.034" enable-background="new 0 0 266.539 156.034"
	 xml:space="preserve">
<g>
	
		<linearGradient id="SVGID_1_" gradientUnits="userSpaceOnUse" x1="-202.4287" y1="552.5894" x2="-202.4287" y2="487.6938" gradientTransform="matrix(1 0 0 1 335.6978 -487.6934)">
		<stop  offset="0" style="stop-color:#ECF2F6"/>
		<stop  offset="1" style="stop-color:#FFFFFF"/>
	</linearGradient>
	<path fill-rule="evenodd" clip-rule="evenodd" fill="url(#SVGID_1_)" d="M266.539,44.82V0H0v44.82
		C93.538,111.783,152.196-15.34,266.539,44.82L266.539,44.82z"/>
	
		<linearGradient id="SVGID_2_" gradientUnits="userSpaceOnUse" x1="8.6064" y1="650.9604" x2="8.6064" y2="578.3628" gradientTransform="matrix(1 0 0 1 124.6626 -550.2168)">
		<stop  offset="0.1" style="stop-color:#C8CCD5"/>
		<stop  offset="0.9" style="stop-color:#ECF2F6"/>
	</linearGradient>
	<path fill-rule="evenodd" clip-rule="evenodd" fill="url(#SVGID_2_)" d="M266.539,91.979V44.82
		c-114.342-60.16-173,66.963-266.539,0v32.544C93.539,149.456,152.197,25.55,266.539,91.979L266.539,91.979z"/>
	
		<linearGradient id="SVGID_3_" gradientUnits="userSpaceOnUse" x1="10.9458" y1="663.4565" x2="5.3971" y2="557.5818" gradientTransform="matrix(1 0.0548 0 1 124.6626 -495.2994)">
		<stop  offset="0.22" style="stop-color:#C8CCD5"/>
		<stop  offset="0.78" style="stop-color:#ECF2F6"/>
	</linearGradient>
	<path fill-rule="evenodd" clip-rule="evenodd" fill="url(#SVGID_3_)" d="M0,156.034h266.539V91.979
		C152.197,25.55,93.539,149.455,0,77.364V156.034L0,156.034z"/>
</g>
</svg>
